<svg width="145" height="101" viewBox="0 0 145 101" fill="none" xmlns="http://www.w3.org/2000/svg">
<path opacity="0.1" d="M36.0997 0.856675C47.7621 0.856675 56.6501 5.13605 62.7635 13.6948C68.9709 22.2535 72.0746 34.5744 72.0746 50.6573C72.0746 66.6462 68.9709 78.967 62.7635 87.6198C56.6501 96.2726 47.7621 100.599 36.0997 100.599C24.4372 100.599 15.5022 96.2726 9.29479 87.6198C3.1814 78.967 0.124707 66.6462 0.124707 50.6573C0.124707 34.5744 3.1814 22.2535 9.29479 13.6948C15.5022 5.13605 24.4372 0.856675 36.0997 0.856675ZM36.0997 17.3628C32.9019 17.3628 30.3625 18.3974 28.4814 20.4666C26.6004 22.5357 25.1896 25.9686 24.2491 30.7653C23.4026 35.5619 22.9794 42.1926 22.9794 50.6573C22.9794 59.122 23.4026 65.7997 24.2491 70.6904C25.1896 75.4871 26.6004 78.92 28.4814 80.9891C30.3625 83.0583 32.9019 84.0929 36.0997 84.0929C39.2974 84.0929 41.8368 83.1053 43.7179 81.1302C45.5989 79.0611 46.9627 75.6282 47.8092 70.8315C48.7497 65.9408 49.2199 59.2161 49.2199 50.6573C49.2199 42.0986 48.7497 35.4209 47.8092 30.6242C46.9627 25.7335 45.5989 22.3006 43.7179 20.3255C41.8368 18.3504 39.2974 17.3628 36.0997 17.3628ZM109.35 0.856675C116.216 0.856675 122.094 2.07935 126.985 4.52471C131.97 6.97007 135.732 10.2619 138.271 14.4002C140.905 18.5385 142.221 23.1 142.221 28.0848C142.221 33.1636 141.187 38.0073 139.118 42.6158C137.049 47.2244 133.38 52.5383 128.114 58.5577C122.847 64.483 115.181 72.0072 105.118 81.1302H144.196L141.939 98.2007H79.8648V82.3999C91.4332 71.0196 99.8509 62.4609 105.118 56.7237C110.385 50.8924 114.053 46.0488 116.122 42.1926C118.285 38.3365 119.367 34.3863 119.367 30.342C119.367 26.4859 118.238 23.4762 115.981 21.313C113.818 19.0558 110.855 17.9272 107.093 17.9272C103.707 17.9272 100.697 18.7266 98.0639 20.3255C95.4304 21.8303 92.6559 24.3227 89.7403 27.8026L76.62 17.3628C80.5702 12.19 85.2728 8.14572 90.7278 5.2301C96.2769 2.31448 102.484 0.856675 109.35 0.856675Z" fill="#F37649"/>
</svg>
