<svg width="145" height="101" viewBox="0 0 145 101" fill="none" xmlns="http://www.w3.org/2000/svg">
<path opacity="0.1" d="M36.5723 0.856675C48.2348 0.856675 57.1227 5.13605 63.2361 13.6948C69.4436 22.2535 72.5473 34.5744 72.5473 50.6573C72.5473 66.6462 69.4436 78.967 63.2361 87.6198C57.1227 96.2726 48.2348 100.599 36.5723 100.599C24.9099 100.599 15.9749 96.2726 9.76745 87.6198C3.65406 78.967 0.597363 66.6462 0.597363 50.6573C0.597363 34.5744 3.65406 22.2535 9.76745 13.6948C15.9749 5.13605 24.9099 0.856675 36.5723 0.856675ZM36.5723 17.3628C33.3745 17.3628 30.8351 18.3974 28.9541 20.4666C27.0731 22.5357 25.6623 25.9686 24.7217 30.7653C23.8753 35.5619 23.452 42.1926 23.452 50.6573C23.452 59.122 23.8753 65.7997 24.7217 70.6904C25.6623 75.4871 27.0731 78.92 28.9541 80.9891C30.8351 83.0583 33.3745 84.0929 36.5723 84.0929C39.7701 84.0929 42.3095 83.1053 44.1905 81.1302C46.0716 79.0611 47.4353 75.6282 48.2818 70.8315C49.2223 65.9408 49.6926 59.2161 49.6926 50.6573C49.6926 42.0986 49.2223 35.4209 48.2818 30.6242C47.4353 25.7335 46.0716 22.3006 44.1905 20.3255C42.3095 18.3504 39.7701 17.3628 36.5723 17.3628ZM110.102 0.856675C116.779 0.856675 122.47 1.93827 127.172 4.10147C131.969 6.26468 135.59 9.18029 138.035 12.8483C140.575 16.5164 141.844 20.6076 141.844 25.1221C141.844 30.8593 140.198 35.656 136.907 39.5121C133.709 43.3683 129.147 46.1428 123.222 47.8357C129.617 48.4941 134.837 50.7984 138.882 54.7486C142.926 58.6047 144.948 64.1068 144.948 71.2547C144.948 76.6157 143.537 81.5534 140.716 86.068C137.894 90.4884 133.709 94.0154 128.16 96.6488C122.705 99.2823 116.168 100.599 108.55 100.599C94.6301 100.599 83.72 95.8024 75.8196 86.209L87.8113 74.4995C91.0091 77.6973 94.1128 80.0486 97.1224 81.5534C100.226 82.9642 103.612 83.6696 107.28 83.6696C111.701 83.6696 115.275 82.4469 118.002 80.0016C120.73 77.5562 122.093 74.1704 122.093 69.844C122.093 64.9532 120.777 61.4733 118.143 59.4042C115.604 57.241 111.748 56.1594 106.575 56.1594H98.6743L101.073 40.7818H106.575C110.807 40.7818 114.146 39.7002 116.591 37.537C119.037 35.3738 120.259 32.3171 120.259 28.3669C120.259 24.887 119.131 22.2065 116.873 20.3255C114.616 18.3504 111.512 17.3628 107.562 17.3628C100.885 17.3628 94.6771 20.1374 88.9399 25.6865L77.9358 13.6948C86.9648 5.13605 97.6868 0.856675 110.102 0.856675Z" fill="#F37649"/>
</svg>
