<svg width="129" height="101" viewBox="0 0 129 101" fill="none" xmlns="http://www.w3.org/2000/svg">
<path opacity="0.1" d="M36.627 0.856675C48.2895 0.856675 57.1774 5.13605 63.2908 13.6948C69.4982 22.2535 72.602 34.5744 72.602 50.6573C72.602 66.6462 69.4982 78.967 63.2908 87.6198C57.1774 96.2726 48.2895 100.599 36.627 100.599C24.9645 100.599 16.0296 96.2726 9.82214 87.6198C3.70875 78.967 0.652051 66.6462 0.652051 50.6573C0.652051 34.5744 3.70875 22.2535 9.82214 13.6948C16.0296 5.13605 24.9645 0.856675 36.627 0.856675ZM36.627 17.3628C33.4292 17.3628 30.8898 18.3974 29.0088 20.4666C27.1277 22.5357 25.717 25.9686 24.7764 30.7653C23.93 35.5619 23.5067 42.1926 23.5067 50.6573C23.5067 59.122 23.93 65.7997 24.7764 70.6904C25.717 75.4871 27.1277 78.92 29.0088 80.9891C30.8898 83.0583 33.4292 84.0929 36.627 84.0929C39.8248 84.0929 42.3642 83.1053 44.2452 81.1302C46.1263 79.0611 47.49 75.6282 48.3365 70.8315C49.277 65.9408 49.7473 59.2161 49.7473 50.6573C49.7473 42.0986 49.277 35.4209 48.3365 30.6242C47.49 25.7335 46.1263 22.3006 44.2452 20.3255C42.3642 18.3504 39.8248 17.3628 36.627 17.3628ZM128.539 2.83177V98.2007H106.672V24.5578L86.216 37.1138L76.4816 22.3006L108.647 2.83177H128.539Z" fill="#F37649"/>
</svg>
