<svg xmlns="http://www.w3.org/2000/svg" viewBox="800 0 3120 3120"><defs><style>.cls-1{fill:#fff;}.cls-2{fill:#e1e7ff;}.cls-3{fill:#b6c7ff;}.cls-4{fill:#d1dbff;}.cls-5{fill:#f2f4ff;}.cls-6{fill:#ccd5ff;}.cls-7{fill:#ecefff;}.cls-8{fill:#abbbf4;}.cls-9{fill:#367acc;}.cls-10{fill:#6192de;}.cls-11{fill:#febd57;}.cls-12{fill:#ff8c3e;}.cls-13{fill:#1a4ea2;}.cls-14{fill:#20307b;}.cls-15{fill:#ffc890;}.cls-16{fill:#ff8c5a;}.cls-17{fill:#361029;}.cls-18{fill:#4d87db;}.cls-19{fill:#ff6029;}.cls-20{opacity:0.28;}.cls-21{fill:#d03e48;}.cls-22{fill:#061859;}.cls-23{fill:#313b47;}.cls-24{opacity:0.26;}.cls-25{fill:none;stroke:#1a4ea2;stroke-miterlimit:10;}.cls-26{fill:#454b6b;}.cls-27{opacity:0.55;}.cls-28{fill:#aa0515;}.cls-29{opacity:0.37;}.cls-30{fill:#bd3132;}.cls-31{fill:#f9ffff;}.cls-32{fill:#ff767b;}</style></defs><title>10</title><g id="_10" data-name="10"><rect id="_10-2" data-name="10" class="cls-1" width="4680" height="3120"/><path class="cls-2" d="M3122.81,2257.54c-338.66,281.73-839.94,363.35-1260.28,197.17q-38.16-15.08-75.5-32.46-30.49-14.19-60.29-29.84c-109.37-57.44-211-129.37-298.43-212.9q-27.68-26.4-53.36-54.37c-90.23-98.2-161.09-210-203.58-331.34q-6.7-19.15-12.46-38.62A771.35,771.35,0,0,1,1127,1523.27c1.1-67.63,5.89-127.85,13.94-181.63q3.86-25.68,8.68-49.42c27.17-133.93,93.16-261.12,212.89-345.21,108-75.85,239.12-112.4,364.23-158.19,20.29-7.43,40.44-15.1,60.29-23.23l5.84-2.41c224-92.93,364.45-326.75,607.09-379.76a690.41,690.41,0,0,1,124.47-15.23q15.6-.49,31.24-.35c3.8,0,7.6.09,11.39.18,5.28.12,10.55.31,15.82.54q12.87.57,25.74,1.58,13.92,1.07,27.81,2.64c172.78,19.38,330.66,92.51,463.38,199.66q15.29,12.34,30.13,25.29a1089.86,1089.86,0,0,1,103.17,103,1.75,1.75,0,0,0,.26.29,1155.33,1155.33,0,0,1,148.14,213.82q6.76,12.56,13.21,25.27c46.36,91.47,80.37,188.59,99.82,287.16q3,14.94,5.45,29.92,1.94,11.43,3.59,22.9c.68,4.76,1.35,9.51,2,14.27s1.24,9.67,1.81,14.52C3548.25,1657.25,3414.8,2014.65,3122.81,2257.54Z"/><path class="cls-2" d="M1807.9,613.52q-10.19,6.26-20.86,11.7c-41.81,21.47-88.79,34.15-136.26,40.67-45.9,6.3-93.72,6.89-137.79-6.52s-84-42.42-100.89-82.2c-29.52-69.66,13.68-154.33,66.78-208.82,5.78-5.92,11.67-11.49,17.59-16.64a334.57,334.57,0,0,1,110.06-63.36c75.09-25.88,188.76-45.64,261.21-5.39C1998.08,355.36,1902.29,555.57,1807.9,613.52Z"/><path class="cls-3" d="M3507.35,1308.85h-970V382.71q15.6-.49,31.23-.36c3.8,0,7.6.1,11.4.19,5.27.12,10.54.31,15.82.54q12.87.57,25.74,1.57,13.92,1.08,27.8,2.65C2822.15,406.68,2980,479.81,3112.75,587q15.3,12.33,30.13,25.28a1088.09,1088.09,0,0,1,90.23,88.46,1.75,1.75,0,0,0,.26.29,1155.33,1155.33,0,0,1,148.14,213.82q6.76,12.56,13.21,25.27c46.36,91.47,80.37,188.59,99.82,287.16q3,14.94,5.45,29.92,1.94,11.43,3.59,22.9c.68,4.76,1.35,9.51,2,14.27S3506.78,1304,3507.35,1308.85Z"/><path class="cls-4" d="M3505.54,1294.33H2524.43V368.19q15.6-.49,31.24-.35c3.8,0,7.6.09,11.39.18,5.28.12,10.55.31,15.82.54q12.87.57,25.74,1.58,13.92,1.07,27.81,2.64c172.78,19.38,330.66,92.51,463.38,199.66q15.29,12.34,30.13,25.29c101.73,88.64,187.28,197.58,251.57,317.08q6.76,12.56,13.21,25.27c46.36,91.47,80.37,188.59,99.82,287.16q3,14.94,5.45,29.92,1.94,11.43,3.59,22.9C3504.26,1284.82,3504.93,1289.57,3505.54,1294.33Z"/><path class="cls-3" d="M3099.81,572.44H2555.67V367.84c3.8,0,7.6.09,11.39.18,5.28.12,10.55.31,15.82.54q12.87.57,25.74,1.58,13.92,1.07,27.81,2.64C2809.21,392.16,2967.09,465.29,3099.81,572.44Z"/><path class="cls-3" d="M3381.51,914.81H2555.67V597.73h574.27C3231.67,686.37,3317.22,795.31,3381.51,914.81Z"/><path class="cls-3" d="M3500,1257.16H2555.67V940.08h839c46.36,91.47,80.37,188.59,99.82,287.16Q3497.5,1242.18,3500,1257.16Z"/><path class="cls-5" d="M3099.81,572.44H2582.88V368.56q12.87.57,25.74,1.58,13.92,1.07,27.81,2.64C2809.21,392.16,2967.09,465.29,3099.81,572.44Z"/><path class="cls-5" d="M3381.51,914.81H2582.88V597.73h547.06C3231.67,686.37,3317.22,795.31,3381.51,914.81Z"/><path class="cls-5" d="M3500,1257.16H2582.88V940.08h811.84c46.36,91.47,80.37,188.59,99.82,287.16Q3497.5,1242.18,3500,1257.16Z"/><rect class="cls-1" x="2697.53" y="634.46" width="27.69" height="251" rx="9.36" transform="translate(1206.41 -1619.99) rotate(42.04)"/><rect class="cls-1" x="2793.53" y="650.65" width="27.69" height="251" rx="9.36" transform="translate(1241.95 -1680.11) rotate(42.04)"/><rect class="cls-1" x="2940.08" y="952.67" width="27.69" height="251" rx="9.36" transform="translate(1481.88 -1700.53) rotate(42.04)"/><rect class="cls-1" x="3014.09" y="961.7" width="27.69" height="251" rx="9.36" transform="translate(1506.96 -1747.76) rotate(42.04)"/><rect class="cls-1" x="2692.93" y="425.58" width="27.69" height="119.19" rx="7.32" transform="translate(1021.23 -1687.6) rotate(42.04)"/><path class="cls-6" d="M1726.74,788.82c20.3-7.44,40.45-15.11,60.3-23.23V2422.24q-30.49-14.17-60.3-29.83c-109.36-57.44-211-129.38-298.43-212.9q-27.68-26.4-53.36-54.37c-90.22-98.2-161.09-210-203.57-331.34q-6.72-19.15-12.47-38.62A771.66,771.66,0,0,1,1127,1523.27c1.11-67.63,5.89-127.85,13.94-181.63q3.86-25.68,8.68-49.43c27.18-133.92,93.16-261.11,212.89-345.2C1470.51,871.15,1601.63,834.61,1726.74,788.82Z"/><path class="cls-7" d="M1726.74,788.82v966.36H1158.91A771.66,771.66,0,0,1,1127,1523.27c1.11-67.63,5.89-127.85,13.94-181.63q3.86-25.68,8.68-49.43c27.18-133.92,93.16-261.11,212.89-345.2C1470.51,871.15,1601.63,834.61,1726.74,788.82Z"/><path class="cls-7" d="M1375,1793.8v331.34c-90.22-98.2-161.09-210-203.57-331.34Z"/><path class="cls-7" d="M1726.74,1793.8v598.61c-109.36-57.44-211-129.38-298.43-212.9V1793.8Z"/><rect class="cls-8" x="1667.18" y="1280.53" width="37.85" height="260.44" rx="16.01"/><rect class="cls-6" x="1658.03" y="1271.46" width="37.85" height="260.44" rx="16.01"/><rect class="cls-1" x="1549.94" y="898.58" width="25.04" height="777.53" rx="9.36"/><rect class="cls-1" x="1484.46" y="1207.97" width="25.04" height="468.14" rx="9.36"/><polygon class="cls-8" points="1444.06 2194.29 1444.06 1807.44 1726.74 1807.44 1726.74 1793.8 1428.31 1793.8 1428.31 2179.51 1444.06 2194.29"/><polygon class="cls-8" points="1176.96 1809.25 1374.95 1809.25 1374.95 1793.8 1171.38 1793.8 1176.96 1809.25"/><polygon class="cls-8" points="1797.63 761.18 1797.63 2426.18 1787.04 2422.24 1787.04 765.59 1797.63 761.18"/><path class="cls-2" d="M2040.66,2706.56c-72.75,4.57-143.8,16-209.31,41.57-78.07,30.53,92.44,71.84,116.55,75.42,159.1,23.67,321.44,30.29,483.35,33.7q325.14,6.84,650.57-3.33c138.16-4.32,277.57-11.11,410.83-41.79,17.72-4.08,36.26-9.07,48.38-20.35,25.3-23.55,7.84-63-24.64-79.36-65-32.67-180.24-17.21-253-16.33l-297,3.62L2368.08,2707C2264,2708.26,2150.4,2699.65,2040.66,2706.56Z"/><path class="cls-9" d="M2096.91,1559.82s-52.22-3.3-56.18,13.88-10.58,73.38,9.91,79.33,58.83,2.64,58.83-4S2096.91,1559.82,2096.91,1559.82Z"/><path class="cls-10" d="M2110.65,1635.62s-77.54-6.11-83.43,25.66-15.71,135.64,14.72,146.63,87.36,4.89,87.36-7.33S2110.65,1635.62,2110.65,1635.62Z"/><path class="cls-11" d="M2286.4,961.65s17,32.34,74.72,11.19,107.23-51.48,111.22-64.74,6,5.25,15.89,13.18,95.19,44.29,130.88,70.07c10.41,7.51,22,13.11,32.45,20.52a260.22,260.22,0,0,1,30.6,25.33c25.91,25,43.71,55.3,62.14,85.87,6,9.91,11.95,19.94,16.81,30.45,1.89,4.09,5.2,10,4.78,14.71s-3.11,5.25-7.3,6.22c0,0-76,206.24-98.49,212.85s-327.65-23.8-373.7-39.66-245.67-130.88-245.67-130.88,70.72-184.91,147.4-222.68S2279.57,945.83,2286.4,961.65Z"/><path class="cls-12" d="M2233.7,971.44s-53.5,175.91-42.92,196.4,64.78,23.8,142.11,23.8,148.07-2.65,158.65-32.39,38.25-170.11,55.81-175.62,71.72,7.71,71.76,7.72c-4.2-1-11.5,22.27-12.88,25.41-26,59.22-44.08,128.14-32.25,193a56.46,56.46,0,0,0,4.34,14.69c1.84,3.74,7.46,8,6.92,11.48-.74,4.79-9.22,12.5-12.54,16.08-6.18,6.66-13.56,12.86-22.33,15.69-20.49,6.61-339.1-33.05-366.2-48.91s-23.14-93.86-7.94-134.85S2233.7,971.44,2233.7,971.44Z"/><path class="cls-13" d="M2742.06,2563.24c-9.25,11.23-119,21.15-119,21.15s-4-13.31-10.52-35.14c-24.56-82.37-84.86-286-100.53-352.87-19.83-84.61-58.71-276.54-127.05-345.84-9.78-9.92-26.31,200.42-36.23,266.51s-12.55,208.22-9.24,291.51-30.41,179.8-30.41,179.8l-145.42,13.88-3.64-36.7c-11-111.48-43.18-441-42.64-481.53.66-48.92-17.19-385.37-27.09-496.42-2.2-24.64-1.93-52.1-.2-80.44,1.28-21,3.36-42.47,5.83-63.63,9.2-79.07,23.83-153.81,22.33-182.85-2.44-47.3,69.86-266.59,69.86-266.59,2.43-7.46,54.87-38.43,45.57-22.64s-81.27,190.45-50.86,219.54,298.78,16.52,310,10.57,39.66-213.51,62.8-231.35,41-2.65,56.18,5.94c14.63,8.27,7.85,14.71,7.31,15.19l0,0c-71.38,38.34-60.15,222.1-50.89,237.3s17.85,5.29,17.85,5.29l29.73,113.7,89.91,73.37s4.05,34,9.59,79c2.7,22,5.75,46.71,8.85,71.4,8.1,64.48-24.52,131-21.16,147.78,7.26,36.35,9.05,159.14,8.38,244.41s9,145.88,15.81,267.73C2733.37,2342.29,2751.31,2552,2742.06,2563.24Z"/><path class="cls-14" d="M2744.08,2381.45c-4.4-103.52-14-206.74-18.32-310.27-4.12-99.52-.8-199.18-1.35-298.76-.19-33.53,15.5-73.4,11-106.61-4.24-31.2-7.32-63-11.26-94.37l-316.71,36.4c0,1,.06,3.57.31,7.47l-314.85-3.57.6,15.57s170.86,12.37,223.54,7.84,92.68,6.53,94.2,21.17h0c6.12,61.46,19.21,160,36.32,167.93,24.32,11.36,59.46-.8,98.84,9,90.89,22.53,74.41,142.55,116.16,373.77,39.14,216.76,33.61,300.74-50,342.28,6.51,21.83,10.52,35.14,10.52,35.14s109.73-9.92,119-21.15c3.15-3.83,3.7-8.83,4.6-13.5C2756.77,2496.65,2746.43,2435.12,2744.08,2381.45Z"/><path class="cls-15" d="M2478.22,833.18c-11.64,24.57-4.52,92.45-4.52,92.45s-16.82,19.4-74.36,51.08-113.79,11-113.79,7.75,2.59-65.29,2.59-65.29c-35.56-12.93-47.85-87.28-46.58-110.56s.67-37.49,0-71.11a125.77,125.77,0,0,1,1.6-23.32c2.92-17.28,8.74-25.17,8.74-25.17l166.25,8.85,3.79.19s87.28,57.54,89.22,90.52S2478.22,833.18,2478.22,833.18Z"/><path class="cls-16" d="M2441.22,800c-5.57-14-7.85-29.13-12.27-43.58S2417.46,727.58,2405,719c-10.33-7.13-23.2-9.42-35.68-10.72-42-4.34-84.26.6-126.15,5.9,2.92-17.28,8.74-25.17,8.74-25.17l166.25,8.85c.1.13.19.28.29.41,4,5.88,7.59,12.11,9.27,19,1.54,6.36,1.35,13,2,19.55C2431.68,758.22,2442.38,778.57,2441.22,800Z"/><path class="cls-17" d="M2456.24,771.76s-6,3.88-8.49,35.56-19.31-80.66-28.37-95.27,33.62,5.4,36.86,22.86S2456.24,771.76,2456.24,771.76Z"/><path class="cls-10" d="M2406.45,712.05s29.74,28,49.79,59.71c0,0,37.49-34.91,55,16.81,0,0,14.22-43.32,6.47-67.88S2426.5,606.9,2379.3,602.37s-77.58,21.34-77.58,21.34S2385.76,703.41,2406.45,712.05Z"/><path class="cls-16" d="M2288.14,919.17s21.33,7.76,69.82,0,73.06-33,82.11-54.31,12.29,5.82-2.58,33.62-90.52,54.95-149.35,41.38Z"/><path class="cls-18" d="M2243.57,712.05s-97-89-60.17-112.91,89.87-12.29,129.95,23.92,93.1,89,93.1,89S2261.07,686.6,2243.57,712.05Z"/><path class="cls-16" d="M2492.28,781.49a11.94,11.94,0,0,1,2.55,6c1.52,8.49-.85,22.34-9.31,26.81-6.27,3.31-12.59-.08-15.64-5.82-3.35-6.29-3.15-15.06-.34-21.49C2473,779.18,2485.5,774,2492.28,781.49Z"/><ellipse class="cls-17" cx="2261.77" cy="787.72" rx="6.59" ry="11.57"/><ellipse class="cls-17" cx="2354.53" cy="788.57" rx="6.59" ry="11.57"/><path class="cls-17" d="M2273.45,737.56c3.18.2,6.48.65,9.09,2.47a10.15,10.15,0,0,1,3.95,10.57,2.28,2.28,0,0,1-.63,1.23,2.61,2.61,0,0,1-1.25.44c-13.24,2.25-26.76,4.51-40,2.36-3.74-.6-8.95-2.46-8.4-7.26.39-3.45,4-4,6.74-5C2252.84,738.87,2262.92,736.93,2273.45,737.56Z"/><path class="cls-17" d="M2342.55,737.56c-3.18.2-6.48.65-9.1,2.47a10.18,10.18,0,0,0-3.95,10.57,2.36,2.36,0,0,0,.64,1.23,2.61,2.61,0,0,0,1.25.44c13.24,2.25,26.76,4.51,40,2.36,3.74-.6,8.95-2.46,8.4-7.26-.39-3.45-4-4-6.74-5C2363.16,738.87,2353.08,736.93,2342.55,737.56Z"/><polygon class="cls-19" points="2289.87 794.29 2279.63 825 2296.65 826.46 2289.87 794.29"/><g class="cls-20"><circle class="cls-16" cx="2251.14" cy="820.04" r="9.67"/></g><g class="cls-20"><circle class="cls-16" cx="2377.61" cy="810.38" r="9.67"/></g><path class="cls-13" d="M2183.68,619.86a35.34,35.34,0,0,1,8.91-11.36,40.23,40.23,0,0,1,5.9-4.29c1-.66,2.13-1.2,3.2-1.78s2.2-1.07,3.34-1.5a54.47,54.47,0,0,1,14.23-3.48,71.63,71.63,0,0,1,14.64,0c2.44.19,4.84.6,7.26,1s4.79.92,7.14,1.57a143.83,143.83,0,0,1,13.94,4.29,173.52,173.52,0,0,1,26.27,12.57c16.78,9.8,32,21.91,46.14,35.14a318,318,0,0,1,38.47,43.22q-9.24-11.13-19.32-21.47t-20.73-20c-7.15-6.41-14.52-12.57-22.2-18.31-3.82-2.9-7.73-5.66-11.69-8.36s-8-5.22-12.18-7.6a175.79,175.79,0,0,0-25.75-12.51,139.19,139.19,0,0,0-13.61-4.4c-2.29-.67-4.63-1.11-6.95-1.64s-4.68-.87-7-1.11c-9.41-1.14-19.13-.7-28.1,2.51S2188.52,611.49,2183.68,619.86Z"/><path class="cls-14" d="M2715.3,1500c-107.94,17-300.77,28.67-385.05,32-82.48,3.29-186.55-14.37-240.14-24.91,1.28-21,3.36-42.47,5.83-63.63,0,0,214.26-138.76,234.1-126.87s199.18-3.39,225.62-15.94,6-46.28-3.31-78.67c-8.47-29.63-5-64.22-3.06-94.52,1.2-18.41,3.15-36.82,6.91-54.9,3.52-16.92,8-36.59,17.88-50.85,8.62-12.4,26.1-35.52,44.56-30.57a3.68,3.68,0,0,1,.47.15c-3-1.18-13.87,10.08-15.82,12.07A93.14,93.14,0,0,0,2590,1021c-8.3,14-13.84,29.61-17.87,45.29-9.77,38.1-12.31,79-10.21,118.13.67,12.54-.66,33.06,6.3,44.2,9.26,15.21,17.85,5.29,17.85,5.29l29.73,113.7,89.91,73.37S2709.76,1455,2715.3,1500Z"/><path class="cls-21" d="M2085.09,1599.85a4.69,4.69,0,0,1,5.16-5.11c28.53,3,162.43,14.53,361-6.49,224.74-23.8,281.32-24.5,281.32-24.5l13.67,9.71a25.54,25.54,0,0,1,9.11,29.85l-11.09,29.37s-159.49-13.37-274.51-8.08c-106.53,4.9-343.8.28-378.2-.43a4.69,4.69,0,0,1-4.58-4.27Z"/><path class="cls-11" d="M2621.54,1495.64c-11.12,6-15.08,10.65-10.49,19.31l32.87,62c1.5,2.83,7.33,1.48,8.7,4.06l1.27,2.39c.71,1.34.14,2.91-.5,4.56l.27-.15,26-14,.28-.14c-1.71-.38-3.33-.79-4-2.13l-1.27-2.39c-1.36-2.58,3-6.71,1.5-9.54l-32.86-62.05C2638.71,1489,2632.66,1489.66,2621.54,1495.64ZM2648.9,1571l-.22.12a3.13,3.13,0,0,1-4.26-1.23l-31.09-58.71a3.16,3.16,0,0,1,1.36-4.24l.22-.12a3.13,3.13,0,0,1,4.26,1.23l31.09,58.7A3.17,3.17,0,0,1,2648.9,1571Zm10.18-5.47-.22.12a3.12,3.12,0,0,1-4.25-1.23l-31.1-58.71a3.16,3.16,0,0,1,1.36-4.24l.22-.12a3.13,3.13,0,0,1,4.26,1.22l31.09,58.71A3.18,3.18,0,0,1,2659.08,1565.48Zm10.9-9.37a3.16,3.16,0,0,1-1.36,4.24l-.22.12a3.13,3.13,0,0,1-4.26-1.22l-31.09-58.71a3.18,3.18,0,0,1,1.36-4.25l.22-.12a3.13,3.13,0,0,1,4.26,1.23Z"/><path class="cls-1" d="M2634.63,1496.17l-.22.12a3.18,3.18,0,0,0-1.36,4.25l31.09,58.71a3.13,3.13,0,0,0,4.26,1.22l.22-.12a3.16,3.16,0,0,0,1.36-4.24l-31.09-58.71A3.13,3.13,0,0,0,2634.63,1496.17Z"/><path class="cls-1" d="M2625.09,1501.3l-.22.12a3.16,3.16,0,0,0-1.36,4.24l31.1,58.71a3.12,3.12,0,0,0,4.25,1.23l.22-.12a3.18,3.18,0,0,0,1.36-4.25l-31.09-58.71A3.13,3.13,0,0,0,2625.09,1501.3Z"/><path class="cls-1" d="M2614.91,1506.77l-.22.12a3.16,3.16,0,0,0-1.36,4.24l31.09,58.71a3.13,3.13,0,0,0,4.26,1.23l.22-.12a3.17,3.17,0,0,0,1.36-4.25l-31.09-58.7A3.13,3.13,0,0,0,2614.91,1506.77Z"/><polygon class="cls-22" points="2731.64 1710.61 2729.84 1718.54 2743.8 1735.1 2747.35 1733.19 2750.91 1731.28 2745.03 1710.38 2737.48 1707.47 2674.59 1588.73 2668.75 1591.86 2731.64 1710.61"/><path class="cls-11" d="M2653.66,1587.86l-.27.15a4.75,4.75,0,0,0-1.77,6.21l.65,1.23a4.67,4.67,0,0,0,6.38,1.84l10.1-5.43,5.84-3.13,10.1-5.43a4.76,4.76,0,0,0,2-6.37l-.65-1.22a4.68,4.68,0,0,0-6.11-2l-.28.14Z"/><path class="cls-14" d="M2385,1850.54c-4.6,23-26.31,200.42-36.23,266.51s-12.55,208.22-9.24,291.51-30.41,179.8-30.41,179.8l-145.42,13.88-3.64-36.7c87.15,3.28,133.42-210.9,126.94-335.79s29.2-256.27,50.28-332.51S2385,1850.54,2385,1850.54Z"/><rect class="cls-11" x="2592.43" y="1462.34" width="52.04" height="324.81" transform="matrix(0.82, -0.58, 0.58, 0.82, -457.68, 1807.74)"/><rect class="cls-12" x="2615.68" y="1454.96" width="26.44" height="324.81" transform="matrix(0.82, -0.58, 0.58, 0.82, -451.51, 1812.42)"/><rect class="cls-23" x="2538.87" y="1506.06" width="26.44" height="5.03" transform="translate(-402.83 1748.2) rotate(-35.22)"/><rect class="cls-23" x="2547.25" y="1517.93" width="26.44" height="5.03" transform="translate(-408.14 1755.21) rotate(-35.22)"/><rect class="cls-23" x="2555.63" y="1529.8" width="26.44" height="5.03" transform="translate(-413.45 1762.21) rotate(-35.22)"/><rect class="cls-23" x="2564.02" y="1541.68" width="26.44" height="5.03" transform="translate(-418.77 1769.22) rotate(-35.22)"/><rect class="cls-23" x="2572.4" y="1553.55" width="26.44" height="5.03" transform="translate(-424.08 1776.23) rotate(-35.22)"/><rect class="cls-23" x="2580.78" y="1565.43" width="26.44" height="5.03" transform="translate(-429.4 1783.24) rotate(-35.22)"/><rect class="cls-23" x="2589.17" y="1577.3" width="26.44" height="5.03" transform="translate(-434.71 1790.25) rotate(-35.22)"/><rect class="cls-23" x="2597.55" y="1589.17" width="26.44" height="5.03" transform="translate(-440.02 1797.26) rotate(-35.22)"/><rect class="cls-23" x="2605.94" y="1601.05" width="26.44" height="5.03" transform="translate(-445.34 1804.27) rotate(-35.22)"/><rect class="cls-23" x="2614.32" y="1612.92" width="26.44" height="5.03" transform="translate(-450.65 1811.28) rotate(-35.22)"/><rect class="cls-23" x="2622.7" y="1624.79" width="26.44" height="5.03" transform="translate(-455.96 1818.29) rotate(-35.22)"/><rect class="cls-23" x="2631.09" y="1636.67" width="26.44" height="5.03" transform="translate(-461.28 1825.3) rotate(-35.22)"/><rect class="cls-23" x="2639.47" y="1648.54" width="26.44" height="5.03" transform="translate(-466.59 1832.31) rotate(-35.22)"/><rect class="cls-23" x="2647.85" y="1660.42" width="26.44" height="5.03" transform="translate(-471.9 1839.32) rotate(-35.22)"/><rect class="cls-23" x="2656.24" y="1672.29" width="26.44" height="5.03" transform="translate(-477.22 1846.33) rotate(-35.22)"/><rect class="cls-23" x="2664.62" y="1684.16" width="26.44" height="5.03" transform="translate(-482.53 1853.34) rotate(-35.22)"/><rect class="cls-23" x="2673" y="1696.04" width="26.44" height="5.03" transform="translate(-487.84 1860.35) rotate(-35.22)"/><rect class="cls-23" x="2681.39" y="1707.91" width="26.44" height="5.03" transform="translate(-493.16 1867.36) rotate(-35.22)"/><rect class="cls-23" x="2689.77" y="1719.78" width="26.44" height="5.03" transform="translate(-498.47 1874.37) rotate(-35.22)"/><rect class="cls-23" x="2698.15" y="1731.66" width="26.44" height="5.03" transform="translate(-503.78 1881.37) rotate(-35.22)"/><path class="cls-13" d="M2678,1790.67a29.76,29.76,0,0,1-21.5-8.12L2506.82,1638a17.15,17.15,0,0,0-16.89-4.07c-5.38,1.62-9.08,2.43-11.63,2.51a57.56,57.56,0,0,1-42.24-16.67,56.84,56.84,0,0,1-16.83-42.24,5.72,5.72,0,0,1,2.83-4.79,6.17,6.17,0,0,1,5.92-.19l31.91,17.81a31.11,31.11,0,0,0,16-25.21l-35.65-19.9a5.71,5.71,0,0,1-.95-9.34,56.84,56.84,0,0,1,34.18-14c14.13-.69,28.1,4.68,39.4,15.27,14.5,13.6,20.75,31.86,18.1,52.84a17.25,17.25,0,0,0,5.41,15l154.34,141a30.32,30.32,0,0,1,9.5,21A22.93,22.93,0,0,1,2678,1790.67Z"/><path class="cls-3" d="M2674,1792a29.79,29.79,0,0,1-21.49-8.13l-149.72-144.5a17.16,17.16,0,0,0-16.89-4.08c-5.38,1.63-9.08,2.43-11.63,2.51a57.58,57.58,0,0,1-42.25-16.66,56.92,56.92,0,0,1-16.83-42.25,5.73,5.73,0,0,1,2.83-4.78,6.14,6.14,0,0,1,5.92-.19l31.92,17.81a31.14,31.14,0,0,0,16-25.21l-35.65-19.9a5.71,5.71,0,0,1-1-9.34,56.76,56.76,0,0,1,34.18-14c14.13-.7,28.1,4.67,39.4,15.27,14.5,13.59,20.75,31.85,18.1,52.83a17.28,17.28,0,0,0,5.41,15l154.34,141a30.34,30.34,0,0,1,9.5,21A23,23,0,0,1,2674,1792Z"/><polygon class="cls-1" points="2530.86 1624.75 2647.2 1728.97 2632.52 1744.05 2518.57 1637.57 2530.86 1624.75"/><path class="cls-10" d="M2767.86,1716.69c-2.8,19.57-60.89,58.19-80,72.61a25.49,25.49,0,0,1-14.28,4.73c-19.8,1.08-44.89-13.19-49.29-14-5.58-1-24.17,8.75-39.5,19s-113.86,2.58-129.66-5.15-20.92-109.69-20.92-131.33,8.37-15.45,8.37-15.45c14.87,11.33,132.78,11.85,132.78,11.85s34.05-1,37.3-.52,20.45-1.55,33-5.15,14.87-1.55,25.56-.51,47.84-60.27,53-81.38-3.4-27.25-3.4-27.25c4.63-1,35.95,5.62,41.53,22.62S2770.64,1697.11,2767.86,1716.69Z"/><g class="cls-24"><path class="cls-13" d="M2673.55,1794c-19.8,1.08-44.89-13.19-49.29-14-5.58-1-24.17,8.75-39.5,19L2575.33,1659s34.05-1,37.3-.52,20.45-1.55,33-5.15,14.87-1.55,25.56-.51Z"/></g><path class="cls-25" d="M2612.63,1658.48s10.2,83.85,11.63,121.55"/><path class="cls-15" d="M2195.69,2588.63s2.88,80.89-11.08,96.64,40,48.61,58.54,39.22,25.58-11.28,25.58-11.28-9.07-57.8-1.81-101.64S2195.69,2588.63,2195.69,2588.63Z"/><path class="cls-26" d="M2297.51,2762.08a37.6,37.6,0,0,1-2.37,12.81l-294.43,4.17s-7.48-2.39-10.37-15.19a50.31,50.31,0,0,1-1.11-10.69c-.13-22.27,110.38-42.65,146.89-58.56,47.19-20.55,43.88-8.12,43.88-8.12s41.23,14.52,86.94-.51c0,0,16.2-26.07,28,50.32C2294.91,2736.31,2298,2749.67,2297.51,2762.08Z"/><path class="cls-14" d="M2297.51,2762.08a37.6,37.6,0,0,1-2.37,12.81l-294.43,4.17s-7.48-2.39-10.37-15.19Z"/><path class="cls-1" d="M2136.63,2720.18a2,2,0,0,1-2.06-1.68,38.9,38.9,0,0,0-7.45-20.08,1.64,1.64,0,0,1,.48-2.49,2.25,2.25,0,0,1,2.87.42,41.59,41.59,0,0,1,8.2,21.94,1.9,1.9,0,0,1-1.93,1.89Z"/><path class="cls-1" d="M2108.73,2724.51a2,2,0,0,1-2.06-1.69c-.76-11.52-5.93-16.4-6-16.45a1.63,1.63,0,0,1,.07-2.52,2.29,2.29,0,0,1,2.9,0c.25.23,6.26,5.75,7.12,18.72a1.9,1.9,0,0,1-1.94,1.89Z"/><path class="cls-1" d="M2164.89,2712.66a2,2,0,0,1-2.07-1.7c-1.15-19.48-13.83-20.1-14-20.11a1.9,1.9,0,0,1-2-1.85,2,2,0,0,1,2.13-1.72c.68,0,16.57.78,17.91,23.5a1.91,1.91,0,0,1-1.95,1.88Z"/><path class="cls-15" d="M2662.61,2588.63s2.88,80.89-11.08,96.64,40,48.61,58.54,39.22,25.58-11.28,25.58-11.28-9.07-57.8-1.81-101.64S2662.61,2588.63,2662.61,2588.63Z"/><path class="cls-26" d="M2764.43,2762.08a37.6,37.6,0,0,1-2.37,12.81l-294.43,4.17s-7.47-2.39-10.36-15.19a49.61,49.61,0,0,1-1.12-10.69c-.13-22.27,110.38-42.65,146.89-58.56,47.19-20.55,43.88-8.12,43.88-8.12s41.23,14.52,86.94-.51c0,0,16.2-26.07,28,50.32C2761.83,2736.31,2764.91,2749.67,2764.43,2762.08Z"/><path class="cls-14" d="M2764.43,2762.08a37.6,37.6,0,0,1-2.37,12.81l-294.43,4.17s-7.47-2.39-10.36-15.19Z"/><path class="cls-1" d="M2603.55,2720.18a2,2,0,0,1-2.06-1.68,38.8,38.8,0,0,0-7.45-20.08,1.64,1.64,0,0,1,.48-2.49,2.25,2.25,0,0,1,2.87.42,41.65,41.65,0,0,1,8.21,21.94,1.92,1.92,0,0,1-1.94,1.89Z"/><path class="cls-1" d="M2575.66,2724.51a2,2,0,0,1-2.07-1.69c-.76-11.52-5.93-16.4-6-16.45a1.64,1.64,0,0,1,.07-2.52,2.29,2.29,0,0,1,2.9,0c.25.23,6.26,5.75,7.12,18.72a1.9,1.9,0,0,1-1.93,1.89Z"/><path class="cls-1" d="M2631.81,2712.66a2,2,0,0,1-2.07-1.7c-1.15-19.48-13.82-20.1-13.95-20.11a1.9,1.9,0,0,1-2-1.85,2,2,0,0,1,2.13-1.72c.68,0,16.58.78,17.91,23.5a1.91,1.91,0,0,1-1.95,1.88Z"/><polygon class="cls-1" points="2157.62 1288.32 2361.04 1194.99 2366.93 1206.32 2164.3 1297.84 2157.62 1288.32"/><path class="cls-15" d="M2789.8,1458.38c-53.16,52.43-408.13-5.24-471.78-60.65a365.37,365.37,0,0,1-44.36-15.35c-12.58-5.42-24.83-12-32.19-19.1-12-11.66-27.83-27.34-36.18-42.4-5.61-10.08-7.84-19.88-3.34-28,0,0-6.74-17.73,7.49-28.7,0,0,1.45-24.25,16.48-26.71s41.43-3.81,47.3,3,68,98.88,83.74,101.88,233.09-3.64,254.34-9.31l-19.62-75-5.61-21.47s49.94-93.7,172.52-59.48c0,0,5.37,14.56,12.55,37.19C2792.41,1281.31,2829.55,1419.19,2789.8,1458.38Z"/><g class="cls-27"><path class="cls-16" d="M2273.66,1379.79c-12.58-5.42-24.83-12-32.19-19.11-12-11.65-27.83-27.33-36.18-42.39,10.18-2.69,31.2-6.85,40.27,1.69C2254.22,1328.13,2267,1361.25,2273.66,1379.79Z"/></g><path class="cls-16" d="M2611.3,1330.42s56.06-5.61,80.59,6.72-8.43-19.88-25.65-25.87-59.95,0-59.95,0Z"/><path class="cls-16" d="M2771.14,1211.65c-22.4-7.82-56.18-17.11-89.18-12.71-44.54,5.94-78.24,41.86-90.28,56.47l-5.61-21.47s49.94-93.71,172.52-59.48C2758.59,1174.46,2764,1189,2771.14,1211.65Z"/><path class="cls-16" d="M2202,1290.05a44.72,44.72,0,0,1,11.83-2.67,68.62,68.62,0,0,1,11.73-.11,65.35,65.35,0,0,1,11.61,1.89,44.7,44.7,0,0,1,5.74,1.88c.94.43,1.88.79,2.82,1.31.46.26.92.49,1.38.78s.9.61,1.31,1l-.14.48a27.05,27.05,0,0,0-2.83-.51c-.95-.15-1.92-.24-2.88-.34-1.92-.23-3.85-.42-5.78-.59-3.86-.34-7.73-.62-11.6-.88l-11.61-.87-5.8-.39-5.81-.44Z"/><path class="cls-16" d="M2209.43,1261.35a52.6,52.6,0,0,1,13.18-3.8,81,81,0,0,1,13.36-1.07,72,72,0,0,1,13.44,1.26,45.38,45.38,0,0,1,6.7,1.84c.56.22,1.1.44,1.66.69a13.52,13.52,0,0,1,1.63.79c.52.28,1.06.63,1.57,1l.73.62a6.08,6.08,0,0,1,.62.74l-.3.4a8.54,8.54,0,0,0-3-1,31.63,31.63,0,0,0-3.24-.49c-2.18-.26-4.38-.42-6.58-.53-4.41-.22-8.82-.26-13.24-.25s-8.83,0-13.24.07l-13.25.3Z"/><polygon class="cls-21" points="2243.37 1366.03 2102.92 1388.22 2024.16 1260.98 1986.71 1213.18 1933.94 1145.84 1941.12 1137.17 2085.26 1137.17 2195 1296.03 2243.37 1366.03"/><polygon class="cls-28" points="2243.37 1366.03 2231.05 1366.03 2182.84 1295.57 2080.41 1145.84 1933.94 1145.84 1941.12 1137.17 2085.26 1137.17 2195 1296.03 2243.37 1366.03"/><g class="cls-29"><path class="cls-28" d="M2243.37,1366l-140.45,22.19L2024.16,1261l-37.45-47.8s107.44,75.82,196.13,82.39q6.15.47,12.16.46Z"/></g><path class="cls-15" d="M2271.91,1427.53c-6,9-29.69,22.61-46.78,28.58s-36.64-5-36.64-5-46.76,13.94-74,18.91-84.18-8-98.1-37.81c-12.32-26.37.67-139.85,3.87-165.9h0c.42-3.43.66-5.34.66-5.34l85.88,102.26.18,0,40.07,5.28s.67-15.92,11.62-28.63,7.82-36,22.08-39.66c14.08-3.58,5,49,4.79,50.36.48-.81,16.26-27.81,39.62-26.36,23.71,1.48,16.34,32.36,16.34,32.36,20.15,3,16.66,21.88,16.66,21.88,19.91,2,10.23,25.87,10.23,25.87S2277.89,1418.58,2271.91,1427.53Z"/><path class="cls-16" d="M2188.49,1451.13s-32-26.93-35.38-46.66-8.27,32.57,22.11,50.5Z"/><path class="cls-16" d="M2241.54,1356.74a43.44,43.44,0,0,1-7,6.25c-1.21,1-2.53,1.75-3.79,2.62s-2.62,1.59-3.94,2.38-2.7,1.45-4.07,2.13-2.76,1.34-4.21,1.89a44.89,44.89,0,0,1-9,2.79l-.15-.27c5.27-3.12,10.63-6.1,15.94-9.15s10.68-6,16.09-8.9Z"/><path class="cls-16" d="M2258.21,1378.63a50.49,50.49,0,0,1-7.17,6.95c-1.24,1.08-2.58,2-3.87,3s-2.69,1.85-4,2.77-2.76,1.74-4.16,2.56-2.82,1.64-4.3,2.35a68.62,68.62,0,0,1-9.13,3.94l-.19-.24c2.58-2,5.29-3.86,8-5.69l8.15-5.43,8.25-5.28q4.13-2.64,8.3-5.2Z"/><path class="cls-16" d="M2268.44,1404.5a33.15,33.15,0,0,1-5.55,6,54.14,54.14,0,0,1-6.34,4.8,56.49,56.49,0,0,1-7,3.85,33.84,33.84,0,0,1-7.72,2.67l-.17-.25c4.36-3,8.81-5.86,13.2-8.78s8.87-5.76,13.37-8.54Z"/><path class="cls-16" d="M2106.77,1363.24s-48.75,3-70.3,2.4,50.33-11.84,46.9-20.64-63.14-78.67-63.14-78.67h0c.42-3.43.94-9.16.94-9.16Z"/><path class="cls-13" d="M2153.39,2572.4s-5.11,48.52,11.5,53.63,139.19,20.43,148.77-7,14.68-57.47-7-54.28S2155.31,2548.77,2153.39,2572.4Z"/><path class="cls-13" d="M2606,2581.76s6.28,48.39,23.61,49.51,140.14-12.38,143.09-41.31,1-59.3-19.41-51.17S2602.4,2558.34,2606,2581.76Z"/><rect class="cls-6" x="1898.68" y="796.75" width="107.09" height="192.54"/><rect class="cls-5" x="1892.28" y="787.72" width="107.09" height="192.54"/><path class="cls-30" d="M2282,875.83a25.89,25.89,0,0,0,19.51,5.44c15.41-2.08,25.18-6.08,31.57-13.86a39.93,39.93,0,0,0,6.88-13.23s1.62-5.85-1.22-7.9c-.94-.68-2.36-.93-4.48-.44-8.56,2-56,10-62,10.53C2268.31,856.69,2272.41,868.52,2282,875.83Z"/><path class="cls-31" d="M2272.25,856.37c2.12,2.51,7.2,5.11,12.78,6s42.76-7.68,47.18-8.84,6.52-7.3,6.52-7.3c-.94-.68-2.36-.93-4.48-.44C2325.69,847.86,2278.28,855.88,2272.25,856.37Z"/><path class="cls-32" d="M2282,875.83a25.89,25.89,0,0,0,19.51,5.44c15.41-2.08,25.18-6.08,31.57-13.86C2323.51,866.32,2303,865.68,2282,875.83Z"/><path class="cls-14" d="M3226.45,2477.55H3054c-8.36,0-15.2,6.38-15.2,14.19v71c0,7.81,6.84,14.19,15.2,14.19h15.17a13.56,13.56,0,0,1-3.77-9.31v-59.91c0-7.8,6.84-14.19,15.2-14.19h122.54c8.36,0,15.2,6.39,15.2,14.19v59.91a13.56,13.56,0,0,1-3.77,9.31h11.85c8.35,0,15.19-6.38,15.19-14.19v-71C3241.64,2483.93,3234.8,2477.55,3226.45,2477.55Z"/><path class="cls-14" d="M3295.74,2771.6h-311.8a25.6,25.6,0,0,1-25.17-22.71l-12.86-103.16c-1.94-15.54,9.88-29.3,25.17-29.3h335.75c15.11,0,26.87,13.46,25.22,28.85L3321,2748.44A25.6,25.6,0,0,1,3295.74,2771.6Z"/><path class="cls-11" d="M3340.91,2634.17h-408v-73.58a19.16,19.16,0,0,1,19.16-19.15h369.67a19.16,19.16,0,0,1,19.16,19.15Z"/><path class="cls-13" d="M3356.11,2624.72l-.85-3.59h-72.81v-15.58h69.13l-3.12-13.19a11.22,11.22,0,0,0-11.1-8.33H2939a11.2,11.2,0,0,0-11.18,8.68l-2.55,12.84h53v15.58h-56.09l-.78,3.93c-1.3,6.53,4.06,12.56,11.17,12.56h45.7v16.63c0,10.23,8.88,18.52,19.83,18.52h32.38c11,0,19.83-8.29,19.83-18.52v-16.63h160.09v16.63c0,10.23,8.88,18.52,19.83,18.52h32.38c11,0,19.83-8.29,19.83-18.52v-16.63H3345C3352.28,2637.62,3357.68,2631.34,3356.11,2624.72Zm-305.79-3.59v-15.58h160.09v15.58Z"/><rect class="cls-13" x="2988.01" y="2541.44" width="318.22" height="14.2"/></g></svg>