<svg width="141" height="25" viewBox="0 0 141 25" fill="none" xmlns="http://www.w3.org/2000/svg">
<path d="M12.036 0.683594L14.7302 8.97539H23.4487L16.3953 14.1L19.0894 22.3918L12.036 17.2672L4.98259 22.3918L7.67676 14.1L0.623333 8.97539H9.34184L12.036 0.683594Z" fill="#F37649"/>
<path d="M41.036 0.683594L43.7302 8.97539H52.4487L45.3953 14.1L48.0894 22.3918L41.036 17.2672L33.9826 22.3918L36.6768 14.1L29.6233 8.97539H38.3418L41.036 0.683594Z" fill="#F37649"/>
<path d="M70.036 0.683594L72.7302 8.97539H81.4487L74.3953 14.1L77.0894 22.3918L70.036 17.2672L62.9826 22.3918L65.6768 14.1L58.6233 8.97539H67.3418L70.036 0.683594Z" fill="#F37649"/>
<path d="M99.036 0.683594L101.73 8.97539H110.449L103.395 14.1L106.089 22.3918L99.036 17.2672L91.9826 22.3918L94.6768 14.1L87.6233 8.97539H96.3418L99.036 0.683594Z" fill="#F37649"/>
<path d="M128.036 0.683594L130.73 8.97539H139.449L132.395 14.1L135.089 22.3918L128.036 17.2672L120.983 22.3918L123.677 14.1L116.623 8.97539H125.342L128.036 0.683594Z" fill="#F37649"/>
</svg>
